<?xml version="1.0" encoding="utf-8"?>
<!-- Generator: Adobe Illustrator 16.0.4, SVG Export Plug-In . SVG Version: 6.00 Build 0)  -->
<!DOCTYPE svg PUBLIC "-//W3C//DTD SVG 1.1//EN" "http://www.w3.org/Graphics/SVG/1.1/DTD/svg11.dtd">
<svg version="1.1" id="svg2385" xmlns:svg="http://www.w3.org/2000/svg"
	 xmlns="http://www.w3.org/2000/svg" xmlns:xlink="http://www.w3.org/1999/xlink" x="0px" y="0px" width="450.17px"
	 height="478.262px" viewBox="0 0 450.17 478.262" enable-background="new 0 0 450.17 478.262" xml:space="preserve">
<g id="layer1" transform="translate(-236.97296,-366.478)">
	
		<radialGradient id="path3382_1_" cx="871.6917" cy="215.4937" r="245.8329" gradientTransform="matrix(0.8383 0 0 -0.8383 -253.2746 724.9513)" gradientUnits="userSpaceOnUse">
		<stop  offset="0" style="stop-color:#6A6A6A"/>
		<stop  offset="1" style="stop-color:#000000"/>
	</radialGradient>
	<path id="path3382" fill="url(#path3382_1_)" d="M687.143,591.563c0,124.248-100.838,225.085-225.085,225.085
		S236.973,715.811,236.973,591.563c0-124.247,100.838-225.085,225.085-225.085S687.143,467.316,687.143,591.563z"/>
	
		<radialGradient id="path3400_1_" cx="849.8987" cy="-609.6665" r="225.0631" gradientTransform="matrix(1 0 0 -1.0001 -371.291 -59.4147)" gradientUnits="userSpaceOnUse">
		<stop  offset="0" style="stop-color:#FFFFFF"/>
		<stop  offset="0.4702" style="stop-color:#FFFFFF"/>
		<stop  offset="1" style="stop-color:#D6D6D6"/>
	</radialGradient>
	<path id="path3400" fill="url(#path3400_1_)" d="M462.049,366.481c-49.128,0-94.577,15.785-131.594,42.531
		c-16.116,19.49-27.406,39-27.406,39l-20.562,7.875c-28.559,37.736-45.5,84.749-45.5,135.688c0,4.758,0.146,9.471,0.438,14.156
		c5.116,9.14,8.938,14.969,8.938,14.969l-2.625,25.688c14.701,58.68,52.455,108.243,103.062,138.501
		c3.616,2.338,6.636,3.754,9.954,5.631c-1.761-1.664-2.303-2.109-3.454-3.162c-13.248-13.703-24.406-29.72-24.406-29.72
		l32.031-29.469c0,0,20.594,15.565,43.719,23.625c23.125,8.06,48.781,8.625,48.781,8.625l15.875,40.751
		c0,0-14.027,7.193-33.937,10.719c-3.565,0.631-7.333,1.145-11.094,1.562c12.288,2.08,24.903,3.188,37.781,3.188
		c52.042,0,99.99-17.686,138.125-47.375c11.931-15.986,19.75-29.72,19.75-29.72l17.375-6.812
		c30.833-38.224,49.437-86.72,49.812-139.531c-6.124-18.158-12.812-28.812-12.812-28.812s1.708-16.583-0.69-34.847
		c-0.376-2.866,1.55-1.846,3.867-3.402c-0.688-2.595-3.185-10.306-4.444-13.988c-4.961-14.496-9.84-21.412-13.045-27.825
		c6.243,3.488-0.024-0.019-0.031-0.031C621.825,414.131,547.468,366.481,462.049,366.481z M489.267,375.044
		c18.704,0.256,38.219,6.312,38.219,6.312s22.174,8.521,38,20.562c15.827,12.042,25.312,27.594,25.312,27.594l-40.25,27.812
		c0,0-21.666-14.842-44.312-22.844c-22.646-8.001-46.281-9.156-46.281-9.156l-11.406-41.531c0,0,17.263-8.11,37-8.719
		C486.783,375.038,488.021,375.027,489.267,375.044z M357.736,486.231c13.82,0.063,25.312,1.719,25.312,1.719l20.812,88.438
		l-66.812,63.625c0,0-20.863-13.236-35.906-26.188c-15.043-12.951-24.281-25.625-24.281-25.625s2.716-25.654,8.844-47.719
		s15.688-40.531,15.688-40.531s16.519-9.506,36.938-12.5C344.711,486.515,351.454,486.203,357.736,486.231z M574.267,549.388
		c0,0,18.838,8.253,34.031,20.406c15.194,12.153,26.75,28.219,26.75,28.219s-1.077,22.001-8.344,44.875
		c-7.266,22.874-20.719,46.625-20.719,46.625s-18.777,6.892-38.594,8.75c-19.815,1.859-40.688-1.312-40.688-1.312l-10.344-43.281
		l-10.656-44.5c0,0,14.143-17.052,31.281-32C554.125,562.221,574.267,549.388,574.267,549.388z"/>
	
		<linearGradient id="path3514_1_" gradientUnits="userSpaceOnUse" x1="888.7396" y1="-687.6621" x2="1006.343" y2="-709.6057" gradientTransform="matrix(0.9741 0 0 -0.9741 -347.1567 -52.7203)">
		<stop  offset="0" style="stop-color:#000000"/>
		<stop  offset="1" style="stop-color:#000000;stop-opacity:0"/>
	</linearGradient>
	<path id="path3514" fill="none" stroke="url(#path3514_1_)" stroke-width="4.8705" stroke-linejoin="round" d="M633.373,598.676
		c0,0-1.059,21.443-8.136,43.726c-7.078,22.281-20.175,45.402-20.175,45.402s-18.297,6.725-37.6,8.535
		c-19.304,1.811-39.612-1.291-39.612-1.291l-10.089-42.15l-10.372-43.332c0,0,13.772-16.632,30.469-31.193
		c16.695-14.561,36.314-27.049,36.314-27.049s18.348,8.052,33.147,19.89C622.12,583.052,633.373,598.676,633.373,598.676z"/>
	
		<linearGradient id="path3516_1_" gradientUnits="userSpaceOnUse" x1="767.2962" y1="-648.3818" x2="655.4252" y2="-604.5048" gradientTransform="matrix(0.9748 0 0 -0.9748 -353.6069 -54.4388)">
		<stop  offset="0" style="stop-color:#000000"/>
		<stop  offset="1" style="stop-color:#000000;stop-opacity:0"/>
	</linearGradient>
	<path id="path3516" fill="none" stroke="url(#path3516_1_)" stroke-width="4.874" stroke-linejoin="round" d="M337.132,638.062
		c0,0-20.337-12.905-35.001-25.529c-14.664-12.625-23.655-24.968-23.655-24.968s2.637-24.997,8.61-46.505
		c5.974-21.509,15.284-39.531,15.284-39.531s16.099-9.255,36.003-12.173s43.615,0.501,43.615,0.501l20.279,86.211L337.132,638.062z"
		/>
	
		<linearGradient id="path3518_1_" gradientUnits="userSpaceOnUse" x1="886.1888" y1="-532.2603" x2="907.4973" y2="-461.9234" gradientTransform="matrix(0.8783 0 0 -0.8783 -264.0946 -53.3232)">
		<stop  offset="0" style="stop-color:#333333"/>
		<stop  offset="1" style="stop-color:#000000;stop-opacity:0"/>
	</linearGradient>
	<path id="path3518" fill="none" stroke="url(#path3518_1_)" stroke-width="5.0158" d="M526.542,385.592
		c0,0,19.465,7.497,33.366,18.073c13.901,10.577,22.24,24.235,22.24,24.235l-35.356,24.431c0,0-19.031-13.054-38.923-20.082
		s-47.714-9.797-47.714-9.797l-9.319-36.843c0,0,19.396-6.769,36.731-7.303C504.903,377.771,526.542,385.592,526.542,385.592z"/>
	<path id="path3479" fill="none" stroke="#666666" d="M382.006,489.154c0,0,36.187-48.081,78.437-64.331"/>
	<path id="path3506" fill="none" stroke="#ECECEC" stroke-width="3" d="M552.778,456.099c0,0,26.985,42.926,23.485,91.926"/>
	<path id="path3481" fill="none" stroke="#666666" d="M550.374,456.614c0,0,27.576,44.376,24.076,93.376"/>
	<path id="path3483" fill="none" stroke="#666666" d="M587.798,429.25c0,0,59.783,23.6,86.033,98.35"/>
	<path id="path3485" fill="none" stroke="#666666" d="M635.417,597.889c0,0,21.044-1.635,39.429-32.748"/>
	<path id="path3487" fill="none" stroke="#666666" d="M620.394,739.32c0,0,2.921-18.129-14.521-50.953"/>
	<path id="path3489" fill="none" stroke="#666666" d="M453.668,760.934c0,0,32.35-8.572,73.363-65.142"/>
	<path id="path3491" fill="none" stroke="#666666" d="M336.818,639.224c0,0-1.944,50.382,23.158,89.979"/>
	<path id="path3493" fill="none" stroke="#666666" d="M328.876,757.904c0,0-7.43,0.093-35.545-16.857"/>
	<path id="path3495" fill="none" stroke="#666666" d="M277.333,588.135c0,0-20.148,8.463-31.001,31.912"/>
	<path id="path3497" fill="none" stroke="#666666" d="M302.698,448.248c0,0-7.232,27.912-0.948,51.363"/>
	<path id="path3499" fill="none" stroke="#666666" d="M326.919,412.596c0,0,60.054-50.895,121.219-28.268"/>
	<path id="path3501" fill="none" stroke="#666666" d="M469.15,801.217c0,0,52.387,13.451,133.188-34.232"/>
	<path id="path3504" fill="none" stroke="#F2F2F2" stroke-width="3" stroke-linecap="square" d="M382.2,485.545
		c0,0,30.091-41.441,74.341-61.316"/>
	<path id="path3508" fill="none" stroke="#FFFFFF" stroke-width="3" d="M454.49,762.668c0,0,30.823-5.947,71.834-62.516"/>
	<path id="path3510" fill="none" stroke="#FFFFFF" stroke-width="3" d="M334.792,640.343c0,0-1.944,50.396,23.158,89.993"/>
	<path id="path2453" fill="none" stroke="#999999" d="M404.347,576.556c0,0,26.34,6.187,101.293,32.704"/>
	<path id="path3260" fill="none" stroke="#ECECEC" d="M404.347,575.281c0,0,26.34,6.188,101.293,32.704"/>
</g>
</svg>
